<?xml version="1.0" standalone="no"?>
<!DOCTYPE svg PUBLIC "-//W3C//DTD SVG 20010904//EN"
 "http://www.w3.org/TR/2001/REC-SVG-20010904/DTD/svg10.dtd">
<svg version="1.0" xmlns="http://www.w3.org/2000/svg"
 width="445.000000pt" height="445.000000pt" viewBox="0 0 445.000000 445.000000"
 preserveAspectRatio="xMidYMid meet">
<metadata>
Created by potrace 1.11, written by Peter Selinger 2001-2013
</metadata>
<g transform="translate(0.000000,445.000000) scale(0.100000,-0.100000)"
fill="#000000" stroke="none">
<path d="M121 4377 c-19 -7 -44 -25 -55 -40 l-21 -28 0 -2114 0 -2114 21 -28
c11 -15 36 -33 55 -40 49 -17 4179 -17 4228 0 19 7 44 25 55 40 l21 28 0 2114
0 2114 -21 28 c-11 15 -36 33 -55 40 -49 17 -4179 17 -4228 0z m2850 -403
c125 -28 213 -104 262 -225 20 -50 22 -74 25 -356 l4 -303 -224 0 -223 0 0
238 c0 208 -2 241 -18 269 -10 19 -29 36 -45 40 -15 5 -112 8 -217 8 -206 0
-244 -7 -264 -51 -8 -18 -11 -339 -11 -1165 l0 -1141 28 -28 c25 -25 38 -29
118 -35 111 -10 321 0 356 15 14 7 31 24 38 39 18 39 23 232 15 564 l-7 297
-119 0 -119 0 0 170 0 170 345 0 345 0 0 -620 c0 -417 -4 -636 -11 -672 -33
-157 -131 -255 -291 -293 -89 -21 -742 -21 -839 -1 -166 36 -267 139 -299 306
-6 33 -10 494 -10 1244 0 1274 0 1258 49 1354 27 52 95 117 149 144 89 43 129
46 520 47 307 1 385 -2 443 -15z m-1375 -1021 c-3 -10 -115 -346 -249 -748
l-244 -730 -76 -3 -76 -3 251 751 250 750 75 0 c66 0 74 -2 69 -17z m-706
-461 l0 -68 -250 -79 c-138 -43 -245 -82 -238 -85 7 -4 120 -40 250 -81 l238
-74 0 -73 c0 -41 -4 -72 -8 -70 -4 2 -153 52 -330 111 l-322 109 0 82 0 81
318 107 c174 58 323 107 330 107 8 1 12 -19 12 -67z m3027 -39 l323 -108 0
-81 0 -81 -330 -111 -330 -111 0 72 0 72 158 49 c86 27 199 64 251 81 l93 31
-251 79 -251 79 0 68 c0 37 3 68 7 68 4 0 153 -48 330 -107z"/>
</g>
</svg>
